<svg xmlns="http://www.w3.org/2000/svg" xmlns:xlink="http://www.w3.org/1999/xlink" width="500" zoomAndPan="magnify" viewBox="0 0 375 374.999991" height="500" preserveAspectRatio="xMidYMid meet" version="1.0"><defs><g/></defs><rect x="-37.5" width="450" fill="#ffffff" y="-37.499999" height="449.999989" fill-opacity="1"/><rect x="-37.5" width="450" fill="#ffffff" y="-37.499999" height="449.999989" fill-opacity="1"/><g fill="#5ce1e6" fill-opacity="0.302"><g transform="translate(49.254648, 161.595926)"><g><path d="M 33.230469 -27.964844 C 37.046875 -27.964844 40.453125 -28.585938 43.445312 -29.925781 C 46.4375 -31.164062 48.914062 -32.917969 50.980469 -34.984375 C 53.042969 -37.046875 54.589844 -39.523438 55.621094 -42.207031 C 56.65625 -44.890625 57.273438 -47.675781 57.273438 -50.566406 C 57.273438 -53.351562 56.757812 -56.140625 55.726562 -58.820312 C 54.695312 -61.503906 53.144531 -63.980469 51.082031 -66.148438 C 49.019531 -68.210938 46.542969 -69.96875 43.546875 -71.207031 C 40.554688 -72.445312 37.152344 -73.167969 33.332031 -73.167969 L 16.511719 -73.167969 C 15.066406 -73.167969 13.726562 -72.855469 12.691406 -72.339844 C 11.660156 -71.824219 10.730469 -71.207031 10.011719 -70.378906 C 9.183594 -69.554688 8.667969 -68.730469 8.253906 -67.800781 C 7.84375 -66.769531 7.738281 -65.839844 7.738281 -64.910156 L 7.738281 -8.152344 C 7.738281 -7.222656 7.84375 -6.296875 8.253906 -5.367188 C 8.667969 -4.335938 9.183594 -3.507812 9.90625 -2.683594 C 10.628906 -1.859375 11.558594 -1.136719 12.589844 -0.621094 C 13.621094 -0.101562 14.964844 0.101562 16.410156 0.101562 C 17.851562 0.101562 19.089844 -0.101562 20.226562 -0.621094 C 21.257812 -1.136719 22.1875 -1.753906 22.910156 -2.578125 C 23.632812 -3.40625 24.148438 -4.230469 24.5625 -5.261719 C 24.871094 -6.191406 25.078125 -7.121094 25.078125 -8.050781 L 25.078125 -26.316406 C 25.078125 -26.832031 25.179688 -27.242188 25.59375 -27.554688 C 25.902344 -27.761719 26.210938 -27.964844 26.417969 -27.964844 Z M 25.078125 -46.128906 L 25.078125 -55.210938 C 25.078125 -55.726562 25.179688 -56.140625 25.59375 -56.449219 C 25.902344 -56.65625 26.210938 -56.859375 26.417969 -56.859375 L 33.230469 -56.859375 C 35.292969 -56.859375 36.945312 -56.242188 38.078125 -55.210938 C 39.214844 -54.179688 39.832031 -52.628906 39.832031 -50.667969 C 39.832031 -48.605469 39.214844 -47.058594 38.078125 -46.027344 C 36.945312 -44.992188 35.292969 -44.476562 33.230469 -44.476562 L 26.417969 -44.476562 C 26.210938 -44.476562 25.902344 -44.582031 25.59375 -44.890625 C 25.179688 -45.097656 25.078125 -45.507812 25.078125 -46.128906 Z M 25.078125 -46.128906 "/></g></g></g><g fill="#5ce1e6" fill-opacity="0.302"><g transform="translate(114.365678, 161.595926)"><g><path d="M 7.535156 -8.050781 C 7.535156 -7.015625 7.738281 -6.089844 8.152344 -5.160156 C 8.566406 -4.128906 9.082031 -3.300781 9.90625 -2.578125 C 10.628906 -1.753906 11.558594 -1.136719 12.691406 -0.722656 C 13.726562 -0.207031 14.964844 0 16.410156 0 C 17.851562 0 19.089844 -0.207031 20.226562 -0.722656 C 21.257812 -1.238281 22.1875 -1.859375 22.910156 -2.683594 C 23.632812 -3.507812 24.148438 -4.335938 24.5625 -5.367188 C 24.871094 -6.296875 25.078125 -7.222656 25.078125 -8.152344 L 25.078125 -64.910156 C 25.078125 -65.839844 24.871094 -66.769531 24.457031 -67.800781 C 24.042969 -68.730469 23.527344 -69.554688 22.804688 -70.378906 C 21.980469 -71.101562 21.050781 -71.722656 20.019531 -72.238281 C 18.988281 -72.753906 17.75 -73.0625 16.304688 -73.0625 C 14.859375 -73.0625 13.519531 -72.753906 12.488281 -72.238281 C 11.453125 -71.722656 10.527344 -71.101562 9.804688 -70.277344 C 8.976562 -69.449219 8.460938 -68.625 8.050781 -67.695312 C 7.636719 -66.664062 7.535156 -65.734375 7.535156 -64.910156 Z M 7.535156 -8.050781 "/></g></g></g><g fill="#5ce1e6" fill-opacity="0.302"><g transform="translate(147.282346, 161.595926)"><g><path d="M 34.363281 -52.628906 L 24.042969 -69.246094 C 23.21875 -70.277344 22.1875 -71.207031 20.949219 -72.03125 C 19.710938 -72.753906 18.164062 -73.167969 16.511719 -73.167969 C 15.066406 -73.167969 13.726562 -72.855469 12.691406 -72.339844 C 11.660156 -71.824219 10.730469 -71.207031 10.011719 -70.378906 C 9.289062 -69.554688 8.773438 -68.730469 8.359375 -67.800781 C 7.945312 -66.769531 7.84375 -65.839844 7.84375 -65.011719 C 7.84375 -63.570312 8.253906 -62.125 9.082031 -60.78125 L 23.632812 -37.460938 C 23.839844 -37.253906 23.941406 -36.945312 23.941406 -36.53125 C 23.941406 -36.117188 23.839844 -35.808594 23.632812 -35.601562 L 9.082031 -12.28125 C 8.253906 -10.9375 7.84375 -9.597656 7.84375 -8.152344 C 7.84375 -7.222656 7.945312 -6.296875 8.359375 -5.367188 C 8.773438 -4.335938 9.289062 -3.507812 10.011719 -2.683594 C 10.730469 -1.859375 11.660156 -1.136719 12.691406 -0.621094 C 13.726562 -0.101562 15.066406 0.101562 16.511719 0.101562 C 18.164062 0.101562 19.710938 -0.207031 20.949219 -1.03125 C 22.1875 -1.859375 23.21875 -2.785156 24.042969 -3.921875 L 34.363281 -20.433594 L 44.789062 -3.921875 C 45.40625 -2.785156 46.4375 -1.859375 47.675781 -1.03125 C 48.914062 -0.207031 50.464844 0.101562 52.21875 0.101562 C 53.660156 0.101562 54.902344 -0.101562 56.035156 -0.621094 C 57.066406 -1.136719 57.996094 -1.859375 58.71875 -2.683594 C 59.441406 -3.507812 59.957031 -4.335938 60.371094 -5.367188 C 60.679688 -6.296875 60.886719 -7.222656 60.886719 -8.152344 C 60.886719 -9.597656 60.472656 -10.9375 59.648438 -12.28125 L 45.097656 -35.601562 C 44.890625 -35.808594 44.789062 -36.117188 44.789062 -36.53125 C 44.789062 -36.945312 44.890625 -37.253906 45.097656 -37.460938 L 59.648438 -60.78125 C 60.472656 -62.125 60.886719 -63.570312 60.886719 -65.011719 C 60.886719 -65.839844 60.679688 -66.769531 60.371094 -67.800781 C 59.957031 -68.730469 59.441406 -69.554688 58.71875 -70.378906 C 57.996094 -71.207031 57.066406 -71.824219 56.035156 -72.339844 C 54.902344 -72.855469 53.660156 -73.167969 52.21875 -73.167969 C 50.464844 -73.167969 48.914062 -72.753906 47.675781 -72.03125 C 46.4375 -71.207031 45.40625 -70.277344 44.789062 -69.246094 Z M 34.363281 -52.628906 "/></g></g></g><g fill="#5ce1e6" fill-opacity="0.302"><g transform="translate(216.004922, 161.595926)"><g><path d="M 16.410156 0 L 45.613281 0 C 47.058594 0 48.296875 -0.207031 49.429688 -0.722656 C 50.464844 -1.238281 51.390625 -1.859375 52.113281 -2.683594 C 52.835938 -3.507812 53.351562 -4.335938 53.765625 -5.367188 C 54.074219 -6.296875 54.28125 -7.222656 54.28125 -8.152344 C 54.28125 -9.082031 54.074219 -10.011719 53.660156 -11.042969 C 53.25 -11.972656 52.734375 -12.796875 52.011719 -13.621094 C 51.183594 -14.34375 50.257812 -14.964844 49.226562 -15.480469 C 48.191406 -15.996094 46.953125 -16.304688 45.507812 -16.304688 L 26.316406 -16.304688 C 26.109375 -16.304688 25.800781 -16.410156 25.488281 -16.613281 C 25.078125 -16.820312 24.972656 -17.234375 24.972656 -17.851562 L 24.972656 -28.585938 C 24.972656 -29.101562 25.078125 -29.515625 25.488281 -29.824219 C 25.800781 -30.03125 26.109375 -30.238281 26.316406 -30.238281 L 40.144531 -30.238281 C 41.589844 -30.238281 42.828125 -30.441406 43.859375 -30.957031 C 44.890625 -31.476562 45.820312 -32.09375 46.542969 -32.917969 C 47.265625 -33.746094 47.78125 -34.570312 48.191406 -35.601562 C 48.605469 -36.53125 48.8125 -37.460938 48.8125 -38.390625 C 48.8125 -39.316406 48.605469 -40.246094 48.191406 -41.277344 C 47.78125 -42.207031 47.265625 -43.03125 46.542969 -43.859375 C 45.714844 -44.582031 44.789062 -45.199219 43.753906 -45.714844 C 42.722656 -46.230469 41.484375 -46.542969 40.039062 -46.542969 L 26.210938 -46.542969 C 26.003906 -46.542969 25.695312 -46.644531 25.386719 -46.851562 C 24.972656 -47.058594 24.871094 -47.46875 24.871094 -48.089844 L 24.871094 -55.210938 C 24.871094 -55.726562 24.972656 -56.140625 25.386719 -56.449219 C 25.695312 -56.65625 26.003906 -56.859375 26.210938 -56.859375 L 45.40625 -56.859375 C 46.851562 -56.859375 48.089844 -57.066406 49.226562 -57.582031 C 50.257812 -58.097656 51.183594 -58.71875 51.90625 -59.542969 C 52.628906 -60.265625 53.144531 -61.09375 53.558594 -62.125 C 53.867188 -63.054688 54.074219 -63.980469 54.074219 -64.910156 C 54.074219 -65.839844 53.867188 -66.769531 53.457031 -67.800781 C 53.042969 -68.730469 52.527344 -69.554688 51.804688 -70.378906 C 50.980469 -71.101562 50.050781 -71.722656 49.019531 -72.238281 C 47.984375 -72.753906 46.746094 -73.0625 45.304688 -73.0625 L 16.097656 -73.0625 C 14.652344 -73.0625 13.3125 -72.753906 12.28125 -72.238281 C 11.25 -71.722656 10.320312 -71.101562 9.597656 -70.277344 C 8.773438 -69.449219 8.253906 -68.625 7.84375 -67.695312 C 7.429688 -66.664062 7.328125 -65.734375 7.328125 -64.910156 L 7.328125 -8.050781 C 7.328125 -7.015625 7.535156 -5.984375 7.945312 -5.054688 C 8.359375 -4.023438 8.976562 -3.199219 9.804688 -2.476562 C 10.628906 -1.652344 11.558594 -1.03125 12.691406 -0.621094 C 13.828125 -0.207031 15.066406 0 16.410156 0 Z M 16.410156 0 "/></g></g></g><g fill="#5ce1e6" fill-opacity="0.302"><g transform="translate(278.123526, 161.595926)"><g><path d="M 24.871094 -64.910156 C 24.871094 -65.734375 24.664062 -66.5625 24.355469 -67.59375 C 24.042969 -68.523438 23.527344 -69.449219 22.910156 -70.277344 C 22.1875 -71.101562 21.257812 -71.722656 20.226562 -72.339844 C 19.195312 -72.855469 17.851562 -73.167969 16.410156 -73.167969 C 14.964844 -73.167969 13.621094 -72.855469 12.589844 -72.339844 C 11.558594 -71.824219 10.628906 -71.207031 9.90625 -70.378906 C 9.082031 -69.554688 8.566406 -68.730469 8.152344 -67.800781 C 7.738281 -66.769531 7.636719 -65.839844 7.636719 -64.910156 L 7.636719 -8.152344 C 7.636719 -7.222656 7.738281 -6.296875 8.152344 -5.367188 C 8.566406 -4.335938 9.082031 -3.507812 9.804688 -2.683594 C 10.527344 -1.859375 11.453125 -1.136719 12.488281 -0.621094 C 13.519531 -0.101562 14.859375 0.101562 16.304688 0.101562 L 46.644531 0.101562 C 48.089844 0.101562 49.328125 -0.101562 50.464844 -0.621094 C 51.496094 -1.136719 52.421875 -1.753906 53.144531 -2.578125 C 53.867188 -3.40625 54.382812 -4.230469 54.796875 -5.261719 C 55.105469 -6.191406 55.3125 -7.121094 55.3125 -8.050781 C 55.3125 -8.976562 55.105469 -9.90625 54.695312 -10.9375 C 54.28125 -11.867188 53.765625 -12.691406 53.042969 -13.519531 C 52.21875 -14.242188 51.289062 -14.859375 50.257812 -15.375 C 49.226562 -15.890625 47.984375 -16.203125 46.542969 -16.203125 L 26.210938 -16.203125 C 26.003906 -16.203125 25.695312 -16.304688 25.386719 -16.511719 C 24.972656 -16.71875 24.871094 -17.128906 24.871094 -17.75 Z M 24.871094 -64.910156 "/></g></g></g><g fill="#5ce1e6" fill-opacity="0.502"><g transform="translate(45.342987, 162.42738)"><g><path d="M 33.230469 -27.964844 C 37.046875 -27.964844 40.453125 -28.585938 43.445312 -29.925781 C 46.4375 -31.164062 48.914062 -32.917969 50.980469 -34.984375 C 53.042969 -37.046875 54.589844 -39.523438 55.621094 -42.207031 C 56.65625 -44.890625 57.273438 -47.675781 57.273438 -50.566406 C 57.273438 -53.351562 56.757812 -56.140625 55.726562 -58.820312 C 54.695312 -61.503906 53.144531 -63.980469 51.082031 -66.148438 C 49.019531 -68.210938 46.542969 -69.96875 43.546875 -71.207031 C 40.554688 -72.445312 37.152344 -73.167969 33.332031 -73.167969 L 16.511719 -73.167969 C 15.066406 -73.167969 13.726562 -72.855469 12.691406 -72.339844 C 11.660156 -71.824219 10.730469 -71.207031 10.011719 -70.378906 C 9.183594 -69.554688 8.667969 -68.730469 8.253906 -67.800781 C 7.84375 -66.769531 7.738281 -65.839844 7.738281 -64.910156 L 7.738281 -8.152344 C 7.738281 -7.222656 7.84375 -6.296875 8.253906 -5.367188 C 8.667969 -4.335938 9.183594 -3.507812 9.90625 -2.683594 C 10.628906 -1.859375 11.558594 -1.136719 12.589844 -0.621094 C 13.621094 -0.101562 14.964844 0.101562 16.410156 0.101562 C 17.851562 0.101562 19.089844 -0.101562 20.226562 -0.621094 C 21.257812 -1.136719 22.1875 -1.753906 22.910156 -2.578125 C 23.632812 -3.40625 24.148438 -4.230469 24.5625 -5.261719 C 24.871094 -6.191406 25.078125 -7.121094 25.078125 -8.050781 L 25.078125 -26.316406 C 25.078125 -26.832031 25.179688 -27.242188 25.59375 -27.554688 C 25.902344 -27.761719 26.210938 -27.964844 26.417969 -27.964844 Z M 25.078125 -46.128906 L 25.078125 -55.210938 C 25.078125 -55.726562 25.179688 -56.140625 25.59375 -56.449219 C 25.902344 -56.65625 26.210938 -56.859375 26.417969 -56.859375 L 33.230469 -56.859375 C 35.292969 -56.859375 36.945312 -56.242188 38.078125 -55.210938 C 39.214844 -54.179688 39.832031 -52.628906 39.832031 -50.667969 C 39.832031 -48.605469 39.214844 -47.058594 38.078125 -46.027344 C 36.945312 -44.992188 35.292969 -44.476562 33.230469 -44.476562 L 26.417969 -44.476562 C 26.210938 -44.476562 25.902344 -44.582031 25.59375 -44.890625 C 25.179688 -45.097656 25.078125 -45.507812 25.078125 -46.128906 Z M 25.078125 -46.128906 "/></g></g></g><g fill="#5ce1e6" fill-opacity="0.502"><g transform="translate(110.454017, 162.42738)"><g><path d="M 7.535156 -8.050781 C 7.535156 -7.015625 7.738281 -6.089844 8.152344 -5.160156 C 8.566406 -4.128906 9.082031 -3.300781 9.90625 -2.578125 C 10.628906 -1.753906 11.558594 -1.136719 12.691406 -0.722656 C 13.726562 -0.207031 14.964844 0 16.410156 0 C 17.851562 0 19.089844 -0.207031 20.226562 -0.722656 C 21.257812 -1.238281 22.1875 -1.859375 22.910156 -2.683594 C 23.632812 -3.507812 24.148438 -4.335938 24.5625 -5.367188 C 24.871094 -6.296875 25.078125 -7.222656 25.078125 -8.152344 L 25.078125 -64.910156 C 25.078125 -65.839844 24.871094 -66.769531 24.457031 -67.800781 C 24.042969 -68.730469 23.527344 -69.554688 22.804688 -70.378906 C 21.980469 -71.101562 21.050781 -71.722656 20.019531 -72.238281 C 18.988281 -72.753906 17.75 -73.0625 16.304688 -73.0625 C 14.859375 -73.0625 13.519531 -72.753906 12.488281 -72.238281 C 11.453125 -71.722656 10.527344 -71.101562 9.804688 -70.277344 C 8.976562 -69.449219 8.460938 -68.625 8.050781 -67.695312 C 7.636719 -66.664062 7.535156 -65.734375 7.535156 -64.910156 Z M 7.535156 -8.050781 "/></g></g></g><g fill="#5ce1e6" fill-opacity="0.502"><g transform="translate(143.370685, 162.42738)"><g><path d="M 34.363281 -52.628906 L 24.042969 -69.246094 C 23.21875 -70.277344 22.1875 -71.207031 20.949219 -72.03125 C 19.710938 -72.753906 18.164062 -73.167969 16.511719 -73.167969 C 15.066406 -73.167969 13.726562 -72.855469 12.691406 -72.339844 C 11.660156 -71.824219 10.730469 -71.207031 10.011719 -70.378906 C 9.289062 -69.554688 8.773438 -68.730469 8.359375 -67.800781 C 7.945312 -66.769531 7.84375 -65.839844 7.84375 -65.011719 C 7.84375 -63.570312 8.253906 -62.125 9.082031 -60.78125 L 23.632812 -37.460938 C 23.839844 -37.253906 23.941406 -36.945312 23.941406 -36.53125 C 23.941406 -36.117188 23.839844 -35.808594 23.632812 -35.601562 L 9.082031 -12.28125 C 8.253906 -10.9375 7.84375 -9.597656 7.84375 -8.152344 C 7.84375 -7.222656 7.945312 -6.296875 8.359375 -5.367188 C 8.773438 -4.335938 9.289062 -3.507812 10.011719 -2.683594 C 10.730469 -1.859375 11.660156 -1.136719 12.691406 -0.621094 C 13.726562 -0.101562 15.066406 0.101562 16.511719 0.101562 C 18.164062 0.101562 19.710938 -0.207031 20.949219 -1.03125 C 22.1875 -1.859375 23.21875 -2.785156 24.042969 -3.921875 L 34.363281 -20.433594 L 44.789062 -3.921875 C 45.40625 -2.785156 46.4375 -1.859375 47.675781 -1.03125 C 48.914062 -0.207031 50.464844 0.101562 52.21875 0.101562 C 53.660156 0.101562 54.902344 -0.101562 56.035156 -0.621094 C 57.066406 -1.136719 57.996094 -1.859375 58.71875 -2.683594 C 59.441406 -3.507812 59.957031 -4.335938 60.371094 -5.367188 C 60.679688 -6.296875 60.886719 -7.222656 60.886719 -8.152344 C 60.886719 -9.597656 60.472656 -10.9375 59.648438 -12.28125 L 45.097656 -35.601562 C 44.890625 -35.808594 44.789062 -36.117188 44.789062 -36.53125 C 44.789062 -36.945312 44.890625 -37.253906 45.097656 -37.460938 L 59.648438 -60.78125 C 60.472656 -62.125 60.886719 -63.570312 60.886719 -65.011719 C 60.886719 -65.839844 60.679688 -66.769531 60.371094 -67.800781 C 59.957031 -68.730469 59.441406 -69.554688 58.71875 -70.378906 C 57.996094 -71.207031 57.066406 -71.824219 56.035156 -72.339844 C 54.902344 -72.855469 53.660156 -73.167969 52.21875 -73.167969 C 50.464844 -73.167969 48.914062 -72.753906 47.675781 -72.03125 C 46.4375 -71.207031 45.40625 -70.277344 44.789062 -69.246094 Z M 34.363281 -52.628906 "/></g></g></g><g fill="#5ce1e6" fill-opacity="0.502"><g transform="translate(212.093261, 162.42738)"><g><path d="M 16.410156 0 L 45.613281 0 C 47.058594 0 48.296875 -0.207031 49.429688 -0.722656 C 50.464844 -1.238281 51.390625 -1.859375 52.113281 -2.683594 C 52.835938 -3.507812 53.351562 -4.335938 53.765625 -5.367188 C 54.074219 -6.296875 54.28125 -7.222656 54.28125 -8.152344 C 54.28125 -9.082031 54.074219 -10.011719 53.660156 -11.042969 C 53.25 -11.972656 52.734375 -12.796875 52.011719 -13.621094 C 51.183594 -14.34375 50.257812 -14.964844 49.226562 -15.480469 C 48.191406 -15.996094 46.953125 -16.304688 45.507812 -16.304688 L 26.316406 -16.304688 C 26.109375 -16.304688 25.800781 -16.410156 25.488281 -16.613281 C 25.078125 -16.820312 24.972656 -17.234375 24.972656 -17.851562 L 24.972656 -28.585938 C 24.972656 -29.101562 25.078125 -29.515625 25.488281 -29.824219 C 25.800781 -30.03125 26.109375 -30.238281 26.316406 -30.238281 L 40.144531 -30.238281 C 41.589844 -30.238281 42.828125 -30.441406 43.859375 -30.957031 C 44.890625 -31.476562 45.820312 -32.09375 46.542969 -32.917969 C 47.265625 -33.746094 47.78125 -34.570312 48.191406 -35.601562 C 48.605469 -36.53125 48.8125 -37.460938 48.8125 -38.390625 C 48.8125 -39.316406 48.605469 -40.246094 48.191406 -41.277344 C 47.78125 -42.207031 47.265625 -43.03125 46.542969 -43.859375 C 45.714844 -44.582031 44.789062 -45.199219 43.753906 -45.714844 C 42.722656 -46.230469 41.484375 -46.542969 40.039062 -46.542969 L 26.210938 -46.542969 C 26.003906 -46.542969 25.695312 -46.644531 25.386719 -46.851562 C 24.972656 -47.058594 24.871094 -47.46875 24.871094 -48.089844 L 24.871094 -55.210938 C 24.871094 -55.726562 24.972656 -56.140625 25.386719 -56.449219 C 25.695312 -56.65625 26.003906 -56.859375 26.210938 -56.859375 L 45.40625 -56.859375 C 46.851562 -56.859375 48.089844 -57.066406 49.226562 -57.582031 C 50.257812 -58.097656 51.183594 -58.71875 51.90625 -59.542969 C 52.628906 -60.265625 53.144531 -61.09375 53.558594 -62.125 C 53.867188 -63.054688 54.074219 -63.980469 54.074219 -64.910156 C 54.074219 -65.839844 53.867188 -66.769531 53.457031 -67.800781 C 53.042969 -68.730469 52.527344 -69.554688 51.804688 -70.378906 C 50.980469 -71.101562 50.050781 -71.722656 49.019531 -72.238281 C 47.984375 -72.753906 46.746094 -73.0625 45.304688 -73.0625 L 16.097656 -73.0625 C 14.652344 -73.0625 13.3125 -72.753906 12.28125 -72.238281 C 11.25 -71.722656 10.320312 -71.101562 9.597656 -70.277344 C 8.773438 -69.449219 8.253906 -68.625 7.84375 -67.695312 C 7.429688 -66.664062 7.328125 -65.734375 7.328125 -64.910156 L 7.328125 -8.050781 C 7.328125 -7.015625 7.535156 -5.984375 7.945312 -5.054688 C 8.359375 -4.023438 8.976562 -3.199219 9.804688 -2.476562 C 10.628906 -1.652344 11.558594 -1.03125 12.691406 -0.621094 C 13.828125 -0.207031 15.066406 0 16.410156 0 Z M 16.410156 0 "/></g></g></g><g fill="#5ce1e6" fill-opacity="0.502"><g transform="translate(274.211865, 162.42738)"><g><path d="M 24.871094 -64.910156 C 24.871094 -65.734375 24.664062 -66.5625 24.355469 -67.59375 C 24.042969 -68.523438 23.527344 -69.449219 22.910156 -70.277344 C 22.1875 -71.101562 21.257812 -71.722656 20.226562 -72.339844 C 19.195312 -72.855469 17.851562 -73.167969 16.410156 -73.167969 C 14.964844 -73.167969 13.621094 -72.855469 12.589844 -72.339844 C 11.558594 -71.824219 10.628906 -71.207031 9.90625 -70.378906 C 9.082031 -69.554688 8.566406 -68.730469 8.152344 -67.800781 C 7.738281 -66.769531 7.636719 -65.839844 7.636719 -64.910156 L 7.636719 -8.152344 C 7.636719 -7.222656 7.738281 -6.296875 8.152344 -5.367188 C 8.566406 -4.335938 9.082031 -3.507812 9.804688 -2.683594 C 10.527344 -1.859375 11.453125 -1.136719 12.488281 -0.621094 C 13.519531 -0.101562 14.859375 0.101562 16.304688 0.101562 L 46.644531 0.101562 C 48.089844 0.101562 49.328125 -0.101562 50.464844 -0.621094 C 51.496094 -1.136719 52.421875 -1.753906 53.144531 -2.578125 C 53.867188 -3.40625 54.382812 -4.230469 54.796875 -5.261719 C 55.105469 -6.191406 55.3125 -7.121094 55.3125 -8.050781 C 55.3125 -8.976562 55.105469 -9.90625 54.695312 -10.9375 C 54.28125 -11.867188 53.765625 -12.691406 53.042969 -13.519531 C 52.21875 -14.242188 51.289062 -14.859375 50.257812 -15.375 C 49.226562 -15.890625 47.984375 -16.203125 46.542969 -16.203125 L 26.210938 -16.203125 C 26.003906 -16.203125 25.695312 -16.304688 25.386719 -16.511719 C 24.972656 -16.71875 24.871094 -17.128906 24.871094 -17.75 Z M 24.871094 -64.910156 "/></g></g></g><g fill="#ff0303" fill-opacity="1"><g transform="translate(41.431313, 163.258831)"><g><path d="M 33.230469 -27.964844 C 37.046875 -27.964844 40.453125 -28.585938 43.445312 -29.925781 C 46.4375 -31.164062 48.914062 -32.917969 50.980469 -34.984375 C 53.042969 -37.046875 54.589844 -39.523438 55.621094 -42.207031 C 56.65625 -44.890625 57.273438 -47.675781 57.273438 -50.566406 C 57.273438 -53.351562 56.757812 -56.140625 55.726562 -58.820312 C 54.695312 -61.503906 53.144531 -63.980469 51.082031 -66.148438 C 49.019531 -68.210938 46.542969 -69.96875 43.546875 -71.207031 C 40.554688 -72.445312 37.152344 -73.167969 33.332031 -73.167969 L 16.511719 -73.167969 C 15.066406 -73.167969 13.726562 -72.855469 12.691406 -72.339844 C 11.660156 -71.824219 10.730469 -71.207031 10.011719 -70.378906 C 9.183594 -69.554688 8.667969 -68.730469 8.253906 -67.800781 C 7.84375 -66.769531 7.738281 -65.839844 7.738281 -64.910156 L 7.738281 -8.152344 C 7.738281 -7.222656 7.84375 -6.296875 8.253906 -5.367188 C 8.667969 -4.335938 9.183594 -3.507812 9.90625 -2.683594 C 10.628906 -1.859375 11.558594 -1.136719 12.589844 -0.621094 C 13.621094 -0.101562 14.964844 0.101562 16.410156 0.101562 C 17.851562 0.101562 19.089844 -0.101562 20.226562 -0.621094 C 21.257812 -1.136719 22.1875 -1.753906 22.910156 -2.578125 C 23.632812 -3.40625 24.148438 -4.230469 24.5625 -5.261719 C 24.871094 -6.191406 25.078125 -7.121094 25.078125 -8.050781 L 25.078125 -26.316406 C 25.078125 -26.832031 25.179688 -27.242188 25.59375 -27.554688 C 25.902344 -27.761719 26.210938 -27.964844 26.417969 -27.964844 Z M 25.078125 -46.128906 L 25.078125 -55.210938 C 25.078125 -55.726562 25.179688 -56.140625 25.59375 -56.449219 C 25.902344 -56.65625 26.210938 -56.859375 26.417969 -56.859375 L 33.230469 -56.859375 C 35.292969 -56.859375 36.945312 -56.242188 38.078125 -55.210938 C 39.214844 -54.179688 39.832031 -52.628906 39.832031 -50.667969 C 39.832031 -48.605469 39.214844 -47.058594 38.078125 -46.027344 C 36.945312 -44.992188 35.292969 -44.476562 33.230469 -44.476562 L 26.417969 -44.476562 C 26.210938 -44.476562 25.902344 -44.582031 25.59375 -44.890625 C 25.179688 -45.097656 25.078125 -45.507812 25.078125 -46.128906 Z M 25.078125 -46.128906 "/></g></g></g><g fill="#ff0303" fill-opacity="1"><g transform="translate(106.542344, 163.258831)"><g><path d="M 7.535156 -8.050781 C 7.535156 -7.015625 7.738281 -6.089844 8.152344 -5.160156 C 8.566406 -4.128906 9.082031 -3.300781 9.90625 -2.578125 C 10.628906 -1.753906 11.558594 -1.136719 12.691406 -0.722656 C 13.726562 -0.207031 14.964844 0 16.410156 0 C 17.851562 0 19.089844 -0.207031 20.226562 -0.722656 C 21.257812 -1.238281 22.1875 -1.859375 22.910156 -2.683594 C 23.632812 -3.507812 24.148438 -4.335938 24.5625 -5.367188 C 24.871094 -6.296875 25.078125 -7.222656 25.078125 -8.152344 L 25.078125 -64.910156 C 25.078125 -65.839844 24.871094 -66.769531 24.457031 -67.800781 C 24.042969 -68.730469 23.527344 -69.554688 22.804688 -70.378906 C 21.980469 -71.101562 21.050781 -71.722656 20.019531 -72.238281 C 18.988281 -72.753906 17.75 -73.0625 16.304688 -73.0625 C 14.859375 -73.0625 13.519531 -72.753906 12.488281 -72.238281 C 11.453125 -71.722656 10.527344 -71.101562 9.804688 -70.277344 C 8.976562 -69.449219 8.460938 -68.625 8.050781 -67.695312 C 7.636719 -66.664062 7.535156 -65.734375 7.535156 -64.910156 Z M 7.535156 -8.050781 "/></g></g></g><g fill="#ff0303" fill-opacity="1"><g transform="translate(139.459012, 163.258831)"><g><path d="M 34.363281 -52.628906 L 24.042969 -69.246094 C 23.21875 -70.277344 22.1875 -71.207031 20.949219 -72.03125 C 19.710938 -72.753906 18.164062 -73.167969 16.511719 -73.167969 C 15.066406 -73.167969 13.726562 -72.855469 12.691406 -72.339844 C 11.660156 -71.824219 10.730469 -71.207031 10.011719 -70.378906 C 9.289062 -69.554688 8.773438 -68.730469 8.359375 -67.800781 C 7.945312 -66.769531 7.84375 -65.839844 7.84375 -65.011719 C 7.84375 -63.570312 8.253906 -62.125 9.082031 -60.78125 L 23.632812 -37.460938 C 23.839844 -37.253906 23.941406 -36.945312 23.941406 -36.53125 C 23.941406 -36.117188 23.839844 -35.808594 23.632812 -35.601562 L 9.082031 -12.28125 C 8.253906 -10.9375 7.84375 -9.597656 7.84375 -8.152344 C 7.84375 -7.222656 7.945312 -6.296875 8.359375 -5.367188 C 8.773438 -4.335938 9.289062 -3.507812 10.011719 -2.683594 C 10.730469 -1.859375 11.660156 -1.136719 12.691406 -0.621094 C 13.726562 -0.101562 15.066406 0.101562 16.511719 0.101562 C 18.164062 0.101562 19.710938 -0.207031 20.949219 -1.03125 C 22.1875 -1.859375 23.21875 -2.785156 24.042969 -3.921875 L 34.363281 -20.433594 L 44.789062 -3.921875 C 45.40625 -2.785156 46.4375 -1.859375 47.675781 -1.03125 C 48.914062 -0.207031 50.464844 0.101562 52.21875 0.101562 C 53.660156 0.101562 54.902344 -0.101562 56.035156 -0.621094 C 57.066406 -1.136719 57.996094 -1.859375 58.71875 -2.683594 C 59.441406 -3.507812 59.957031 -4.335938 60.371094 -5.367188 C 60.679688 -6.296875 60.886719 -7.222656 60.886719 -8.152344 C 60.886719 -9.597656 60.472656 -10.9375 59.648438 -12.28125 L 45.097656 -35.601562 C 44.890625 -35.808594 44.789062 -36.117188 44.789062 -36.53125 C 44.789062 -36.945312 44.890625 -37.253906 45.097656 -37.460938 L 59.648438 -60.78125 C 60.472656 -62.125 60.886719 -63.570312 60.886719 -65.011719 C 60.886719 -65.839844 60.679688 -66.769531 60.371094 -67.800781 C 59.957031 -68.730469 59.441406 -69.554688 58.71875 -70.378906 C 57.996094 -71.207031 57.066406 -71.824219 56.035156 -72.339844 C 54.902344 -72.855469 53.660156 -73.167969 52.21875 -73.167969 C 50.464844 -73.167969 48.914062 -72.753906 47.675781 -72.03125 C 46.4375 -71.207031 45.40625 -70.277344 44.789062 -69.246094 Z M 34.363281 -52.628906 "/></g></g></g><g fill="#ff0303" fill-opacity="1"><g transform="translate(208.181588, 163.258831)"><g><path d="M 16.410156 0 L 45.613281 0 C 47.058594 0 48.296875 -0.207031 49.429688 -0.722656 C 50.464844 -1.238281 51.390625 -1.859375 52.113281 -2.683594 C 52.835938 -3.507812 53.351562 -4.335938 53.765625 -5.367188 C 54.074219 -6.296875 54.28125 -7.222656 54.28125 -8.152344 C 54.28125 -9.082031 54.074219 -10.011719 53.660156 -11.042969 C 53.25 -11.972656 52.734375 -12.796875 52.011719 -13.621094 C 51.183594 -14.34375 50.257812 -14.964844 49.226562 -15.480469 C 48.191406 -15.996094 46.953125 -16.304688 45.507812 -16.304688 L 26.316406 -16.304688 C 26.109375 -16.304688 25.800781 -16.410156 25.488281 -16.613281 C 25.078125 -16.820312 24.972656 -17.234375 24.972656 -17.851562 L 24.972656 -28.585938 C 24.972656 -29.101562 25.078125 -29.515625 25.488281 -29.824219 C 25.800781 -30.03125 26.109375 -30.238281 26.316406 -30.238281 L 40.144531 -30.238281 C 41.589844 -30.238281 42.828125 -30.441406 43.859375 -30.957031 C 44.890625 -31.476562 45.820312 -32.09375 46.542969 -32.917969 C 47.265625 -33.746094 47.78125 -34.570312 48.191406 -35.601562 C 48.605469 -36.53125 48.8125 -37.460938 48.8125 -38.390625 C 48.8125 -39.316406 48.605469 -40.246094 48.191406 -41.277344 C 47.78125 -42.207031 47.265625 -43.03125 46.542969 -43.859375 C 45.714844 -44.582031 44.789062 -45.199219 43.753906 -45.714844 C 42.722656 -46.230469 41.484375 -46.542969 40.039062 -46.542969 L 26.210938 -46.542969 C 26.003906 -46.542969 25.695312 -46.644531 25.386719 -46.851562 C 24.972656 -47.058594 24.871094 -47.46875 24.871094 -48.089844 L 24.871094 -55.210938 C 24.871094 -55.726562 24.972656 -56.140625 25.386719 -56.449219 C 25.695312 -56.65625 26.003906 -56.859375 26.210938 -56.859375 L 45.40625 -56.859375 C 46.851562 -56.859375 48.089844 -57.066406 49.226562 -57.582031 C 50.257812 -58.097656 51.183594 -58.71875 51.90625 -59.542969 C 52.628906 -60.265625 53.144531 -61.09375 53.558594 -62.125 C 53.867188 -63.054688 54.074219 -63.980469 54.074219 -64.910156 C 54.074219 -65.839844 53.867188 -66.769531 53.457031 -67.800781 C 53.042969 -68.730469 52.527344 -69.554688 51.804688 -70.378906 C 50.980469 -71.101562 50.050781 -71.722656 49.019531 -72.238281 C 47.984375 -72.753906 46.746094 -73.0625 45.304688 -73.0625 L 16.097656 -73.0625 C 14.652344 -73.0625 13.3125 -72.753906 12.28125 -72.238281 C 11.25 -71.722656 10.320312 -71.101562 9.597656 -70.277344 C 8.773438 -69.449219 8.253906 -68.625 7.84375 -67.695312 C 7.429688 -66.664062 7.328125 -65.734375 7.328125 -64.910156 L 7.328125 -8.050781 C 7.328125 -7.015625 7.535156 -5.984375 7.945312 -5.054688 C 8.359375 -4.023438 8.976562 -3.199219 9.804688 -2.476562 C 10.628906 -1.652344 11.558594 -1.03125 12.691406 -0.621094 C 13.828125 -0.207031 15.066406 0 16.410156 0 Z M 16.410156 0 "/></g></g></g><g fill="#ff0303" fill-opacity="1"><g transform="translate(270.300192, 163.258831)"><g><path d="M 24.871094 -64.910156 C 24.871094 -65.734375 24.664062 -66.5625 24.355469 -67.59375 C 24.042969 -68.523438 23.527344 -69.449219 22.910156 -70.277344 C 22.1875 -71.101562 21.257812 -71.722656 20.226562 -72.339844 C 19.195312 -72.855469 17.851562 -73.167969 16.410156 -73.167969 C 14.964844 -73.167969 13.621094 -72.855469 12.589844 -72.339844 C 11.558594 -71.824219 10.628906 -71.207031 9.90625 -70.378906 C 9.082031 -69.554688 8.566406 -68.730469 8.152344 -67.800781 C 7.738281 -66.769531 7.636719 -65.839844 7.636719 -64.910156 L 7.636719 -8.152344 C 7.636719 -7.222656 7.738281 -6.296875 8.152344 -5.367188 C 8.566406 -4.335938 9.082031 -3.507812 9.804688 -2.683594 C 10.527344 -1.859375 11.453125 -1.136719 12.488281 -0.621094 C 13.519531 -0.101562 14.859375 0.101562 16.304688 0.101562 L 46.644531 0.101562 C 48.089844 0.101562 49.328125 -0.101562 50.464844 -0.621094 C 51.496094 -1.136719 52.421875 -1.753906 53.144531 -2.578125 C 53.867188 -3.40625 54.382812 -4.230469 54.796875 -5.261719 C 55.105469 -6.191406 55.3125 -7.121094 55.3125 -8.050781 C 55.3125 -8.976562 55.105469 -9.90625 54.695312 -10.9375 C 54.28125 -11.867188 53.765625 -12.691406 53.042969 -13.519531 C 52.21875 -14.242188 51.289062 -14.859375 50.257812 -15.375 C 49.226562 -15.890625 47.984375 -16.203125 46.542969 -16.203125 L 26.210938 -16.203125 C 26.003906 -16.203125 25.695312 -16.304688 25.386719 -16.511719 C 24.972656 -16.71875 24.871094 -17.128906 24.871094 -17.75 Z M 24.871094 -64.910156 "/></g></g></g><g fill="#5ce1e6" fill-opacity="0.302"><g transform="translate(13.680547, 242.078069)"><g><path d="M 24.976562 -43.34375 L 38.699219 -29.101562 C 39.214844 -28.484375 39.835938 -28.070312 40.660156 -27.65625 C 41.488281 -27.246094 42.3125 -27.039062 43.34375 -27.039062 C 44.375 -27.039062 45.203125 -27.246094 46.027344 -27.65625 C 46.855469 -28.070312 47.472656 -28.484375 48.09375 -29.101562 L 61.816406 -43.34375 L 61.816406 -7.945312 C 61.816406 -7.019531 61.921875 -6.089844 62.332031 -5.160156 C 62.746094 -4.128906 63.261719 -3.300781 63.984375 -2.476562 C 64.707031 -1.652344 65.636719 -0.929688 66.667969 -0.414062 C 67.699219 0.101562 69.042969 0.308594 70.488281 0.308594 C 71.929688 0.308594 73.171875 0.101562 74.203125 -0.414062 C 75.234375 -0.929688 76.164062 -1.546875 76.886719 -2.375 C 77.609375 -3.199219 78.125 -4.023438 78.535156 -5.058594 C 78.949219 -5.984375 79.15625 -6.914062 79.15625 -7.84375 L 79.15625 -64.707031 C 79.15625 -65.636719 78.949219 -66.566406 78.535156 -67.492188 C 78.125 -68.421875 77.609375 -69.25 76.886719 -70.074219 C 76.058594 -70.898438 75.132812 -71.519531 74.097656 -72.035156 C 73.066406 -72.449219 71.828125 -72.757812 70.382812 -72.757812 C 69.042969 -72.757812 67.804688 -72.449219 66.667969 -72.035156 C 65.53125 -71.519531 64.605469 -70.898438 63.882812 -70.175781 L 43.136719 -48.503906 L 22.910156 -70.382812 C 21.257812 -72.136719 19.09375 -73.066406 16.410156 -73.066406 C 14.964844 -73.066406 13.621094 -72.757812 12.589844 -72.242188 C 11.558594 -71.726562 10.628906 -71.105469 9.90625 -70.28125 C 9.082031 -69.453125 8.566406 -68.628906 8.152344 -67.699219 C 7.738281 -66.667969 7.636719 -65.738281 7.636719 -64.914062 L 7.636719 -8.050781 C 7.636719 -7.121094 7.738281 -6.191406 8.152344 -5.261719 C 8.566406 -4.230469 9.082031 -3.40625 9.804688 -2.578125 C 10.527344 -1.753906 11.457031 -1.03125 12.488281 -0.515625 C 13.519531 0 14.859375 0.207031 16.304688 0.207031 C 17.75 0.207031 18.988281 0 20.125 -0.515625 C 21.15625 -1.03125 22.085938 -1.652344 22.808594 -2.476562 C 23.53125 -3.300781 24.046875 -4.128906 24.457031 -5.160156 C 24.769531 -6.089844 24.976562 -7.019531 24.976562 -7.945312 Z M 24.976562 -43.34375 "/></g></g></g><g fill="#5ce1e6" fill-opacity="0.302"><g transform="translate(100.989262, 242.078069)"><g><path d="M 50.054688 -66.773438 C 49.433594 -68.421875 48.195312 -69.867188 46.542969 -71.210938 C 44.789062 -72.449219 42.726562 -73.171875 40.351562 -73.171875 C 37.875 -73.171875 35.8125 -72.449219 34.054688 -71.210938 C 32.300781 -69.972656 31.0625 -68.421875 30.445312 -66.773438 L 8.257812 -11.042969 C 7.84375 -10.113281 7.738281 -9.183594 7.738281 -8.152344 C 7.738281 -7.222656 7.84375 -6.296875 8.257812 -5.367188 C 8.667969 -4.335938 9.183594 -3.507812 9.90625 -2.785156 C 10.628906 -1.960938 11.558594 -1.339844 12.695312 -0.824219 C 13.726562 -0.308594 14.964844 -0.101562 16.410156 -0.101562 C 18.472656 -0.101562 20.226562 -0.621094 21.671875 -1.753906 C 23.015625 -2.785156 23.941406 -4.023438 24.5625 -5.46875 L 30.339844 -20.019531 C 30.445312 -20.226562 30.652344 -20.433594 30.855469 -20.640625 C 31.0625 -20.742188 31.375 -20.847656 31.578125 -20.847656 L 49.019531 -20.847656 C 49.433594 -20.847656 49.847656 -20.539062 50.257812 -20.019531 L 55.933594 -5.46875 C 56.453125 -4.023438 57.378906 -2.785156 58.824219 -1.753906 C 60.167969 -0.621094 61.921875 -0.101562 64.089844 -0.101562 C 65.53125 -0.101562 66.773438 -0.308594 67.804688 -0.824219 C 68.835938 -1.339844 69.765625 -1.960938 70.589844 -2.785156 C 71.3125 -3.507812 71.828125 -4.335938 72.242188 -5.367188 C 72.652344 -6.296875 72.859375 -7.222656 72.859375 -8.152344 C 72.859375 -9.183594 72.652344 -10.21875 72.242188 -11.042969 Z M 40.25 -44.6875 C 40.457031 -44.066406 40.660156 -43.550781 40.867188 -43.035156 C 41.074219 -42.414062 41.382812 -41.898438 41.589844 -41.28125 C 41.796875 -40.558594 42.105469 -39.9375 42.414062 -39.320312 C 42.621094 -38.699219 42.828125 -38.082031 43.035156 -37.566406 C 43.136719 -37.253906 43.242188 -37.050781 43.242188 -37.050781 L 37.050781 -37.050781 C 37.152344 -37.152344 37.253906 -37.253906 37.253906 -37.460938 C 37.667969 -38.699219 38.183594 -39.835938 38.699219 -41.074219 C 39.113281 -42.3125 39.628906 -43.449219 40.25 -44.6875 Z M 40.25 -44.6875 "/></g></g></g><g fill="#5ce1e6" fill-opacity="0.302"><g transform="translate(181.486665, 242.078069)"><g><path d="M 24.976562 -41.898438 L 58.617188 -2.992188 C 59.339844 -2.0625 60.269531 -1.339844 61.507812 -0.722656 C 62.644531 -0.101562 63.984375 0.101562 65.429688 0.101562 C 66.875 0.101562 68.113281 -0.101562 69.144531 -0.621094 C 70.175781 -1.136719 71.105469 -1.753906 71.828125 -2.578125 C 72.550781 -3.40625 73.066406 -4.230469 73.480469 -5.261719 C 73.890625 -6.191406 74.097656 -7.121094 74.097656 -8.050781 L 74.097656 -64.914062 C 74.097656 -65.738281 73.890625 -66.667969 73.480469 -67.699219 C 73.066406 -68.628906 72.550781 -69.453125 71.828125 -70.28125 C 71.003906 -71.003906 70.074219 -71.621094 69.042969 -72.136719 C 68.011719 -72.652344 66.773438 -72.964844 65.328125 -72.964844 C 63.882812 -72.964844 62.539062 -72.652344 61.507812 -72.136719 C 60.476562 -71.621094 59.546875 -71.003906 58.824219 -70.175781 C 58 -69.351562 57.484375 -68.527344 57.070312 -67.597656 C 56.65625 -66.566406 56.554688 -65.636719 56.554688 -64.8125 L 56.554688 -31.578125 L 23.21875 -70.175781 C 22.394531 -71.003906 21.464844 -71.621094 20.332031 -72.242188 C 19.09375 -72.859375 17.855469 -73.171875 16.410156 -73.171875 C 14.964844 -73.171875 13.621094 -72.859375 12.589844 -72.34375 C 11.558594 -71.828125 10.628906 -71.210938 9.90625 -70.382812 C 9.082031 -69.558594 8.566406 -68.730469 8.152344 -67.804688 C 7.738281 -66.773438 7.636719 -65.84375 7.636719 -64.914062 L 7.636719 -8.152344 C 7.636719 -7.222656 7.738281 -6.296875 8.152344 -5.367188 C 8.566406 -4.335938 9.082031 -3.507812 9.804688 -2.683594 C 10.527344 -1.859375 11.457031 -1.136719 12.488281 -0.621094 C 13.519531 -0.101562 14.859375 0.101562 16.304688 0.101562 C 17.75 0.101562 18.988281 -0.101562 20.125 -0.621094 C 21.15625 -1.136719 22.085938 -1.753906 22.808594 -2.578125 C 23.53125 -3.40625 24.046875 -4.230469 24.457031 -5.261719 C 24.769531 -6.191406 24.976562 -7.121094 24.976562 -8.050781 Z M 24.976562 -41.898438 "/></g></g></g><g fill="#5ce1e6" fill-opacity="0.302"><g transform="translate(263.53209, 242.078069)"><g><path d="M 7.535156 -8.050781 C 7.535156 -7.019531 7.738281 -6.089844 8.152344 -5.160156 C 8.566406 -4.128906 9.082031 -3.300781 9.90625 -2.578125 C 10.628906 -1.753906 11.558594 -1.136719 12.695312 -0.722656 C 13.726562 -0.207031 14.964844 0 16.410156 0 C 17.855469 0 19.09375 -0.207031 20.226562 -0.722656 C 21.257812 -1.238281 22.1875 -1.859375 22.910156 -2.683594 C 23.632812 -3.507812 24.148438 -4.335938 24.5625 -5.367188 C 24.871094 -6.296875 25.078125 -7.222656 25.078125 -8.152344 L 25.078125 -64.914062 C 25.078125 -65.84375 24.871094 -66.773438 24.457031 -67.804688 C 24.046875 -68.730469 23.53125 -69.558594 22.808594 -70.382812 C 21.980469 -71.105469 21.054688 -71.726562 20.019531 -72.242188 C 18.988281 -72.757812 17.75 -73.066406 16.304688 -73.066406 C 14.859375 -73.066406 13.519531 -72.757812 12.488281 -72.242188 C 11.457031 -71.726562 10.527344 -71.105469 9.804688 -70.28125 C 8.980469 -69.453125 8.460938 -68.628906 8.050781 -67.699219 C 7.636719 -66.667969 7.535156 -65.738281 7.535156 -64.914062 Z M 7.535156 -8.050781 "/></g></g></g><g fill="#5ce1e6" fill-opacity="0.302"><g transform="translate(296.453467, 242.078069)"><g><path d="M 50.054688 -66.773438 C 49.433594 -68.421875 48.195312 -69.867188 46.542969 -71.210938 C 44.789062 -72.449219 42.726562 -73.171875 40.351562 -73.171875 C 37.875 -73.171875 35.8125 -72.449219 34.054688 -71.210938 C 32.300781 -69.972656 31.0625 -68.421875 30.445312 -66.773438 L 8.257812 -11.042969 C 7.84375 -10.113281 7.738281 -9.183594 7.738281 -8.152344 C 7.738281 -7.222656 7.84375 -6.296875 8.257812 -5.367188 C 8.667969 -4.335938 9.183594 -3.507812 9.90625 -2.785156 C 10.628906 -1.960938 11.558594 -1.339844 12.695312 -0.824219 C 13.726562 -0.308594 14.964844 -0.101562 16.410156 -0.101562 C 18.472656 -0.101562 20.226562 -0.621094 21.671875 -1.753906 C 23.015625 -2.785156 23.941406 -4.023438 24.5625 -5.46875 L 30.339844 -20.019531 C 30.445312 -20.226562 30.652344 -20.433594 30.855469 -20.640625 C 31.0625 -20.742188 31.375 -20.847656 31.578125 -20.847656 L 49.019531 -20.847656 C 49.433594 -20.847656 49.847656 -20.539062 50.257812 -20.019531 L 55.933594 -5.46875 C 56.453125 -4.023438 57.378906 -2.785156 58.824219 -1.753906 C 60.167969 -0.621094 61.921875 -0.101562 64.089844 -0.101562 C 65.53125 -0.101562 66.773438 -0.308594 67.804688 -0.824219 C 68.835938 -1.339844 69.765625 -1.960938 70.589844 -2.785156 C 71.3125 -3.507812 71.828125 -4.335938 72.242188 -5.367188 C 72.652344 -6.296875 72.859375 -7.222656 72.859375 -8.152344 C 72.859375 -9.183594 72.652344 -10.21875 72.242188 -11.042969 Z M 40.25 -44.6875 C 40.457031 -44.066406 40.660156 -43.550781 40.867188 -43.035156 C 41.074219 -42.414062 41.382812 -41.898438 41.589844 -41.28125 C 41.796875 -40.558594 42.105469 -39.9375 42.414062 -39.320312 C 42.621094 -38.699219 42.828125 -38.082031 43.035156 -37.566406 C 43.136719 -37.253906 43.242188 -37.050781 43.242188 -37.050781 L 37.050781 -37.050781 C 37.152344 -37.152344 37.253906 -37.253906 37.253906 -37.460938 C 37.667969 -38.699219 38.183594 -39.835938 38.699219 -41.074219 C 39.113281 -42.3125 39.628906 -43.449219 40.25 -44.6875 Z M 40.25 -44.6875 "/></g></g></g><g fill="#5ce1e6" fill-opacity="0.502"><g transform="translate(9.768871, 242.909516)"><g><path d="M 24.976562 -43.34375 L 38.699219 -29.101562 C 39.214844 -28.484375 39.835938 -28.070312 40.660156 -27.65625 C 41.488281 -27.246094 42.3125 -27.039062 43.34375 -27.039062 C 44.375 -27.039062 45.203125 -27.246094 46.027344 -27.65625 C 46.855469 -28.070312 47.472656 -28.484375 48.09375 -29.101562 L 61.816406 -43.34375 L 61.816406 -7.945312 C 61.816406 -7.019531 61.921875 -6.089844 62.332031 -5.160156 C 62.746094 -4.128906 63.261719 -3.300781 63.984375 -2.476562 C 64.707031 -1.652344 65.636719 -0.929688 66.667969 -0.414062 C 67.699219 0.101562 69.042969 0.308594 70.488281 0.308594 C 71.929688 0.308594 73.171875 0.101562 74.203125 -0.414062 C 75.234375 -0.929688 76.164062 -1.546875 76.886719 -2.375 C 77.609375 -3.199219 78.125 -4.023438 78.535156 -5.058594 C 78.949219 -5.984375 79.15625 -6.914062 79.15625 -7.84375 L 79.15625 -64.707031 C 79.15625 -65.636719 78.949219 -66.566406 78.535156 -67.492188 C 78.125 -68.421875 77.609375 -69.25 76.886719 -70.074219 C 76.058594 -70.898438 75.132812 -71.519531 74.097656 -72.035156 C 73.066406 -72.449219 71.828125 -72.757812 70.382812 -72.757812 C 69.042969 -72.757812 67.804688 -72.449219 66.667969 -72.035156 C 65.53125 -71.519531 64.605469 -70.898438 63.882812 -70.175781 L 43.136719 -48.503906 L 22.910156 -70.382812 C 21.257812 -72.136719 19.09375 -73.066406 16.410156 -73.066406 C 14.964844 -73.066406 13.621094 -72.757812 12.589844 -72.242188 C 11.558594 -71.726562 10.628906 -71.105469 9.90625 -70.28125 C 9.082031 -69.453125 8.566406 -68.628906 8.152344 -67.699219 C 7.738281 -66.667969 7.636719 -65.738281 7.636719 -64.914062 L 7.636719 -8.050781 C 7.636719 -7.121094 7.738281 -6.191406 8.152344 -5.261719 C 8.566406 -4.230469 9.082031 -3.40625 9.804688 -2.578125 C 10.527344 -1.753906 11.457031 -1.03125 12.488281 -0.515625 C 13.519531 0 14.859375 0.207031 16.304688 0.207031 C 17.75 0.207031 18.988281 0 20.125 -0.515625 C 21.15625 -1.03125 22.085938 -1.652344 22.808594 -2.476562 C 23.53125 -3.300781 24.046875 -4.128906 24.457031 -5.160156 C 24.769531 -6.089844 24.976562 -7.019531 24.976562 -7.945312 Z M 24.976562 -43.34375 "/></g></g></g><g fill="#5ce1e6" fill-opacity="0.502"><g transform="translate(97.077587, 242.909516)"><g><path d="M 50.054688 -66.773438 C 49.433594 -68.421875 48.195312 -69.867188 46.542969 -71.210938 C 44.789062 -72.449219 42.726562 -73.171875 40.351562 -73.171875 C 37.875 -73.171875 35.8125 -72.449219 34.054688 -71.210938 C 32.300781 -69.972656 31.0625 -68.421875 30.445312 -66.773438 L 8.257812 -11.042969 C 7.84375 -10.113281 7.738281 -9.183594 7.738281 -8.152344 C 7.738281 -7.222656 7.84375 -6.296875 8.257812 -5.367188 C 8.667969 -4.335938 9.183594 -3.507812 9.90625 -2.785156 C 10.628906 -1.960938 11.558594 -1.339844 12.695312 -0.824219 C 13.726562 -0.308594 14.964844 -0.101562 16.410156 -0.101562 C 18.472656 -0.101562 20.226562 -0.621094 21.671875 -1.753906 C 23.015625 -2.785156 23.941406 -4.023438 24.5625 -5.46875 L 30.339844 -20.019531 C 30.445312 -20.226562 30.652344 -20.433594 30.855469 -20.640625 C 31.0625 -20.742188 31.375 -20.847656 31.578125 -20.847656 L 49.019531 -20.847656 C 49.433594 -20.847656 49.847656 -20.539062 50.257812 -20.019531 L 55.933594 -5.46875 C 56.453125 -4.023438 57.378906 -2.785156 58.824219 -1.753906 C 60.167969 -0.621094 61.921875 -0.101562 64.089844 -0.101562 C 65.53125 -0.101562 66.773438 -0.308594 67.804688 -0.824219 C 68.835938 -1.339844 69.765625 -1.960938 70.589844 -2.785156 C 71.3125 -3.507812 71.828125 -4.335938 72.242188 -5.367188 C 72.652344 -6.296875 72.859375 -7.222656 72.859375 -8.152344 C 72.859375 -9.183594 72.652344 -10.21875 72.242188 -11.042969 Z M 40.25 -44.6875 C 40.457031 -44.066406 40.660156 -43.550781 40.867188 -43.035156 C 41.074219 -42.414062 41.382812 -41.898438 41.589844 -41.28125 C 41.796875 -40.558594 42.105469 -39.9375 42.414062 -39.320312 C 42.621094 -38.699219 42.828125 -38.082031 43.035156 -37.566406 C 43.136719 -37.253906 43.242188 -37.050781 43.242188 -37.050781 L 37.050781 -37.050781 C 37.152344 -37.152344 37.253906 -37.253906 37.253906 -37.460938 C 37.667969 -38.699219 38.183594 -39.835938 38.699219 -41.074219 C 39.113281 -42.3125 39.628906 -43.449219 40.25 -44.6875 Z M 40.25 -44.6875 "/></g></g></g><g fill="#5ce1e6" fill-opacity="0.502"><g transform="translate(177.574989, 242.909516)"><g><path d="M 24.976562 -41.898438 L 58.617188 -2.992188 C 59.339844 -2.0625 60.269531 -1.339844 61.507812 -0.722656 C 62.644531 -0.101562 63.984375 0.101562 65.429688 0.101562 C 66.875 0.101562 68.113281 -0.101562 69.144531 -0.621094 C 70.175781 -1.136719 71.105469 -1.753906 71.828125 -2.578125 C 72.550781 -3.40625 73.066406 -4.230469 73.480469 -5.261719 C 73.890625 -6.191406 74.097656 -7.121094 74.097656 -8.050781 L 74.097656 -64.914062 C 74.097656 -65.738281 73.890625 -66.667969 73.480469 -67.699219 C 73.066406 -68.628906 72.550781 -69.453125 71.828125 -70.28125 C 71.003906 -71.003906 70.074219 -71.621094 69.042969 -72.136719 C 68.011719 -72.652344 66.773438 -72.964844 65.328125 -72.964844 C 63.882812 -72.964844 62.539062 -72.652344 61.507812 -72.136719 C 60.476562 -71.621094 59.546875 -71.003906 58.824219 -70.175781 C 58 -69.351562 57.484375 -68.527344 57.070312 -67.597656 C 56.65625 -66.566406 56.554688 -65.636719 56.554688 -64.8125 L 56.554688 -31.578125 L 23.21875 -70.175781 C 22.394531 -71.003906 21.464844 -71.621094 20.332031 -72.242188 C 19.09375 -72.859375 17.855469 -73.171875 16.410156 -73.171875 C 14.964844 -73.171875 13.621094 -72.859375 12.589844 -72.34375 C 11.558594 -71.828125 10.628906 -71.210938 9.90625 -70.382812 C 9.082031 -69.558594 8.566406 -68.730469 8.152344 -67.804688 C 7.738281 -66.773438 7.636719 -65.84375 7.636719 -64.914062 L 7.636719 -8.152344 C 7.636719 -7.222656 7.738281 -6.296875 8.152344 -5.367188 C 8.566406 -4.335938 9.082031 -3.507812 9.804688 -2.683594 C 10.527344 -1.859375 11.457031 -1.136719 12.488281 -0.621094 C 13.519531 -0.101562 14.859375 0.101562 16.304688 0.101562 C 17.75 0.101562 18.988281 -0.101562 20.125 -0.621094 C 21.15625 -1.136719 22.085938 -1.753906 22.808594 -2.578125 C 23.53125 -3.40625 24.046875 -4.230469 24.457031 -5.261719 C 24.769531 -6.191406 24.976562 -7.121094 24.976562 -8.050781 Z M 24.976562 -41.898438 "/></g></g></g><g fill="#5ce1e6" fill-opacity="0.502"><g transform="translate(259.620414, 242.909516)"><g><path d="M 7.535156 -8.050781 C 7.535156 -7.019531 7.738281 -6.089844 8.152344 -5.160156 C 8.566406 -4.128906 9.082031 -3.300781 9.90625 -2.578125 C 10.628906 -1.753906 11.558594 -1.136719 12.695312 -0.722656 C 13.726562 -0.207031 14.964844 0 16.410156 0 C 17.855469 0 19.09375 -0.207031 20.226562 -0.722656 C 21.257812 -1.238281 22.1875 -1.859375 22.910156 -2.683594 C 23.632812 -3.507812 24.148438 -4.335938 24.5625 -5.367188 C 24.871094 -6.296875 25.078125 -7.222656 25.078125 -8.152344 L 25.078125 -64.914062 C 25.078125 -65.84375 24.871094 -66.773438 24.457031 -67.804688 C 24.046875 -68.730469 23.53125 -69.558594 22.808594 -70.382812 C 21.980469 -71.105469 21.054688 -71.726562 20.019531 -72.242188 C 18.988281 -72.757812 17.75 -73.066406 16.304688 -73.066406 C 14.859375 -73.066406 13.519531 -72.757812 12.488281 -72.242188 C 11.457031 -71.726562 10.527344 -71.105469 9.804688 -70.28125 C 8.980469 -69.453125 8.460938 -68.628906 8.050781 -67.699219 C 7.636719 -66.667969 7.535156 -65.738281 7.535156 -64.914062 Z M 7.535156 -8.050781 "/></g></g></g><g fill="#5ce1e6" fill-opacity="0.502"><g transform="translate(292.541792, 242.909516)"><g><path d="M 50.054688 -66.773438 C 49.433594 -68.421875 48.195312 -69.867188 46.542969 -71.210938 C 44.789062 -72.449219 42.726562 -73.171875 40.351562 -73.171875 C 37.875 -73.171875 35.8125 -72.449219 34.054688 -71.210938 C 32.300781 -69.972656 31.0625 -68.421875 30.445312 -66.773438 L 8.257812 -11.042969 C 7.84375 -10.113281 7.738281 -9.183594 7.738281 -8.152344 C 7.738281 -7.222656 7.84375 -6.296875 8.257812 -5.367188 C 8.667969 -4.335938 9.183594 -3.507812 9.90625 -2.785156 C 10.628906 -1.960938 11.558594 -1.339844 12.695312 -0.824219 C 13.726562 -0.308594 14.964844 -0.101562 16.410156 -0.101562 C 18.472656 -0.101562 20.226562 -0.621094 21.671875 -1.753906 C 23.015625 -2.785156 23.941406 -4.023438 24.5625 -5.46875 L 30.339844 -20.019531 C 30.445312 -20.226562 30.652344 -20.433594 30.855469 -20.640625 C 31.0625 -20.742188 31.375 -20.847656 31.578125 -20.847656 L 49.019531 -20.847656 C 49.433594 -20.847656 49.847656 -20.539062 50.257812 -20.019531 L 55.933594 -5.46875 C 56.453125 -4.023438 57.378906 -2.785156 58.824219 -1.753906 C 60.167969 -0.621094 61.921875 -0.101562 64.089844 -0.101562 C 65.53125 -0.101562 66.773438 -0.308594 67.804688 -0.824219 C 68.835938 -1.339844 69.765625 -1.960938 70.589844 -2.785156 C 71.3125 -3.507812 71.828125 -4.335938 72.242188 -5.367188 C 72.652344 -6.296875 72.859375 -7.222656 72.859375 -8.152344 C 72.859375 -9.183594 72.652344 -10.21875 72.242188 -11.042969 Z M 40.25 -44.6875 C 40.457031 -44.066406 40.660156 -43.550781 40.867188 -43.035156 C 41.074219 -42.414062 41.382812 -41.898438 41.589844 -41.28125 C 41.796875 -40.558594 42.105469 -39.9375 42.414062 -39.320312 C 42.621094 -38.699219 42.828125 -38.082031 43.035156 -37.566406 C 43.136719 -37.253906 43.242188 -37.050781 43.242188 -37.050781 L 37.050781 -37.050781 C 37.152344 -37.152344 37.253906 -37.253906 37.253906 -37.460938 C 37.667969 -38.699219 38.183594 -39.835938 38.699219 -41.074219 C 39.113281 -42.3125 39.628906 -43.449219 40.25 -44.6875 Z M 40.25 -44.6875 "/></g></g></g><g fill="#be41f1" fill-opacity="1"><g transform="translate(5.857198, 243.740976)"><g><path d="M 24.976562 -43.34375 L 38.699219 -29.101562 C 39.214844 -28.484375 39.835938 -28.070312 40.660156 -27.65625 C 41.488281 -27.246094 42.3125 -27.039062 43.34375 -27.039062 C 44.375 -27.039062 45.203125 -27.246094 46.027344 -27.65625 C 46.855469 -28.070312 47.472656 -28.484375 48.09375 -29.101562 L 61.816406 -43.34375 L 61.816406 -7.945312 C 61.816406 -7.019531 61.921875 -6.089844 62.332031 -5.160156 C 62.746094 -4.128906 63.261719 -3.300781 63.984375 -2.476562 C 64.707031 -1.652344 65.636719 -0.929688 66.667969 -0.414062 C 67.699219 0.101562 69.042969 0.308594 70.488281 0.308594 C 71.929688 0.308594 73.171875 0.101562 74.203125 -0.414062 C 75.234375 -0.929688 76.164062 -1.546875 76.886719 -2.375 C 77.609375 -3.199219 78.125 -4.023438 78.535156 -5.058594 C 78.949219 -5.984375 79.15625 -6.914062 79.15625 -7.84375 L 79.15625 -64.707031 C 79.15625 -65.636719 78.949219 -66.566406 78.535156 -67.492188 C 78.125 -68.421875 77.609375 -69.25 76.886719 -70.074219 C 76.058594 -70.898438 75.132812 -71.519531 74.097656 -72.035156 C 73.066406 -72.449219 71.828125 -72.757812 70.382812 -72.757812 C 69.042969 -72.757812 67.804688 -72.449219 66.667969 -72.035156 C 65.53125 -71.519531 64.605469 -70.898438 63.882812 -70.175781 L 43.136719 -48.503906 L 22.910156 -70.382812 C 21.257812 -72.136719 19.09375 -73.066406 16.410156 -73.066406 C 14.964844 -73.066406 13.621094 -72.757812 12.589844 -72.242188 C 11.558594 -71.726562 10.628906 -71.105469 9.90625 -70.28125 C 9.082031 -69.453125 8.566406 -68.628906 8.152344 -67.699219 C 7.738281 -66.667969 7.636719 -65.738281 7.636719 -64.914062 L 7.636719 -8.050781 C 7.636719 -7.121094 7.738281 -6.191406 8.152344 -5.261719 C 8.566406 -4.230469 9.082031 -3.40625 9.804688 -2.578125 C 10.527344 -1.753906 11.457031 -1.03125 12.488281 -0.515625 C 13.519531 0 14.859375 0.207031 16.304688 0.207031 C 17.75 0.207031 18.988281 0 20.125 -0.515625 C 21.15625 -1.03125 22.085938 -1.652344 22.808594 -2.476562 C 23.53125 -3.300781 24.046875 -4.128906 24.457031 -5.160156 C 24.769531 -6.089844 24.976562 -7.019531 24.976562 -7.945312 Z M 24.976562 -43.34375 "/></g></g></g><g fill="#be41f1" fill-opacity="1"><g transform="translate(93.165913, 243.740976)"><g><path d="M 50.054688 -66.773438 C 49.433594 -68.421875 48.195312 -69.867188 46.542969 -71.210938 C 44.789062 -72.449219 42.726562 -73.171875 40.351562 -73.171875 C 37.875 -73.171875 35.8125 -72.449219 34.054688 -71.210938 C 32.300781 -69.972656 31.0625 -68.421875 30.445312 -66.773438 L 8.257812 -11.042969 C 7.84375 -10.113281 7.738281 -9.183594 7.738281 -8.152344 C 7.738281 -7.222656 7.84375 -6.296875 8.257812 -5.367188 C 8.667969 -4.335938 9.183594 -3.507812 9.90625 -2.785156 C 10.628906 -1.960938 11.558594 -1.339844 12.695312 -0.824219 C 13.726562 -0.308594 14.964844 -0.101562 16.410156 -0.101562 C 18.472656 -0.101562 20.226562 -0.621094 21.671875 -1.753906 C 23.015625 -2.785156 23.941406 -4.023438 24.5625 -5.46875 L 30.339844 -20.019531 C 30.445312 -20.226562 30.652344 -20.433594 30.855469 -20.640625 C 31.0625 -20.742188 31.375 -20.847656 31.578125 -20.847656 L 49.019531 -20.847656 C 49.433594 -20.847656 49.847656 -20.539062 50.257812 -20.019531 L 55.933594 -5.46875 C 56.453125 -4.023438 57.378906 -2.785156 58.824219 -1.753906 C 60.167969 -0.621094 61.921875 -0.101562 64.089844 -0.101562 C 65.53125 -0.101562 66.773438 -0.308594 67.804688 -0.824219 C 68.835938 -1.339844 69.765625 -1.960938 70.589844 -2.785156 C 71.3125 -3.507812 71.828125 -4.335938 72.242188 -5.367188 C 72.652344 -6.296875 72.859375 -7.222656 72.859375 -8.152344 C 72.859375 -9.183594 72.652344 -10.21875 72.242188 -11.042969 Z M 40.25 -44.6875 C 40.457031 -44.066406 40.660156 -43.550781 40.867188 -43.035156 C 41.074219 -42.414062 41.382812 -41.898438 41.589844 -41.28125 C 41.796875 -40.558594 42.105469 -39.9375 42.414062 -39.320312 C 42.621094 -38.699219 42.828125 -38.082031 43.035156 -37.566406 C 43.136719 -37.253906 43.242188 -37.050781 43.242188 -37.050781 L 37.050781 -37.050781 C 37.152344 -37.152344 37.253906 -37.253906 37.253906 -37.460938 C 37.667969 -38.699219 38.183594 -39.835938 38.699219 -41.074219 C 39.113281 -42.3125 39.628906 -43.449219 40.25 -44.6875 Z M 40.25 -44.6875 "/></g></g></g><g fill="#be41f1" fill-opacity="1"><g transform="translate(173.663316, 243.740976)"><g><path d="M 24.976562 -41.898438 L 58.617188 -2.992188 C 59.339844 -2.0625 60.269531 -1.339844 61.507812 -0.722656 C 62.644531 -0.101562 63.984375 0.101562 65.429688 0.101562 C 66.875 0.101562 68.113281 -0.101562 69.144531 -0.621094 C 70.175781 -1.136719 71.105469 -1.753906 71.828125 -2.578125 C 72.550781 -3.40625 73.066406 -4.230469 73.480469 -5.261719 C 73.890625 -6.191406 74.097656 -7.121094 74.097656 -8.050781 L 74.097656 -64.914062 C 74.097656 -65.738281 73.890625 -66.667969 73.480469 -67.699219 C 73.066406 -68.628906 72.550781 -69.453125 71.828125 -70.28125 C 71.003906 -71.003906 70.074219 -71.621094 69.042969 -72.136719 C 68.011719 -72.652344 66.773438 -72.964844 65.328125 -72.964844 C 63.882812 -72.964844 62.539062 -72.652344 61.507812 -72.136719 C 60.476562 -71.621094 59.546875 -71.003906 58.824219 -70.175781 C 58 -69.351562 57.484375 -68.527344 57.070312 -67.597656 C 56.65625 -66.566406 56.554688 -65.636719 56.554688 -64.8125 L 56.554688 -31.578125 L 23.21875 -70.175781 C 22.394531 -71.003906 21.464844 -71.621094 20.332031 -72.242188 C 19.09375 -72.859375 17.855469 -73.171875 16.410156 -73.171875 C 14.964844 -73.171875 13.621094 -72.859375 12.589844 -72.34375 C 11.558594 -71.828125 10.628906 -71.210938 9.90625 -70.382812 C 9.082031 -69.558594 8.566406 -68.730469 8.152344 -67.804688 C 7.738281 -66.773438 7.636719 -65.84375 7.636719 -64.914062 L 7.636719 -8.152344 C 7.636719 -7.222656 7.738281 -6.296875 8.152344 -5.367188 C 8.566406 -4.335938 9.082031 -3.507812 9.804688 -2.683594 C 10.527344 -1.859375 11.457031 -1.136719 12.488281 -0.621094 C 13.519531 -0.101562 14.859375 0.101562 16.304688 0.101562 C 17.75 0.101562 18.988281 -0.101562 20.125 -0.621094 C 21.15625 -1.136719 22.085938 -1.753906 22.808594 -2.578125 C 23.53125 -3.40625 24.046875 -4.230469 24.457031 -5.261719 C 24.769531 -6.191406 24.976562 -7.121094 24.976562 -8.050781 Z M 24.976562 -41.898438 "/></g></g></g><g fill="#be41f1" fill-opacity="1"><g transform="translate(255.70874, 243.740976)"><g><path d="M 7.535156 -8.050781 C 7.535156 -7.019531 7.738281 -6.089844 8.152344 -5.160156 C 8.566406 -4.128906 9.082031 -3.300781 9.90625 -2.578125 C 10.628906 -1.753906 11.558594 -1.136719 12.695312 -0.722656 C 13.726562 -0.207031 14.964844 0 16.410156 0 C 17.855469 0 19.09375 -0.207031 20.226562 -0.722656 C 21.257812 -1.238281 22.1875 -1.859375 22.910156 -2.683594 C 23.632812 -3.507812 24.148438 -4.335938 24.5625 -5.367188 C 24.871094 -6.296875 25.078125 -7.222656 25.078125 -8.152344 L 25.078125 -64.914062 C 25.078125 -65.84375 24.871094 -66.773438 24.457031 -67.804688 C 24.046875 -68.730469 23.53125 -69.558594 22.808594 -70.382812 C 21.980469 -71.105469 21.054688 -71.726562 20.019531 -72.242188 C 18.988281 -72.757812 17.75 -73.066406 16.304688 -73.066406 C 14.859375 -73.066406 13.519531 -72.757812 12.488281 -72.242188 C 11.457031 -71.726562 10.527344 -71.105469 9.804688 -70.28125 C 8.980469 -69.453125 8.460938 -68.628906 8.050781 -67.699219 C 7.636719 -66.667969 7.535156 -65.738281 7.535156 -64.914062 Z M 7.535156 -8.050781 "/></g></g></g><g fill="#be41f1" fill-opacity="1"><g transform="translate(288.630118, 243.740976)"><g><path d="M 50.054688 -66.773438 C 49.433594 -68.421875 48.195312 -69.867188 46.542969 -71.210938 C 44.789062 -72.449219 42.726562 -73.171875 40.351562 -73.171875 C 37.875 -73.171875 35.8125 -72.449219 34.054688 -71.210938 C 32.300781 -69.972656 31.0625 -68.421875 30.445312 -66.773438 L 8.257812 -11.042969 C 7.84375 -10.113281 7.738281 -9.183594 7.738281 -8.152344 C 7.738281 -7.222656 7.84375 -6.296875 8.257812 -5.367188 C 8.667969 -4.335938 9.183594 -3.507812 9.90625 -2.785156 C 10.628906 -1.960938 11.558594 -1.339844 12.695312 -0.824219 C 13.726562 -0.308594 14.964844 -0.101562 16.410156 -0.101562 C 18.472656 -0.101562 20.226562 -0.621094 21.671875 -1.753906 C 23.015625 -2.785156 23.941406 -4.023438 24.5625 -5.46875 L 30.339844 -20.019531 C 30.445312 -20.226562 30.652344 -20.433594 30.855469 -20.640625 C 31.0625 -20.742188 31.375 -20.847656 31.578125 -20.847656 L 49.019531 -20.847656 C 49.433594 -20.847656 49.847656 -20.539062 50.257812 -20.019531 L 55.933594 -5.46875 C 56.453125 -4.023438 57.378906 -2.785156 58.824219 -1.753906 C 60.167969 -0.621094 61.921875 -0.101562 64.089844 -0.101562 C 65.53125 -0.101562 66.773438 -0.308594 67.804688 -0.824219 C 68.835938 -1.339844 69.765625 -1.960938 70.589844 -2.785156 C 71.3125 -3.507812 71.828125 -4.335938 72.242188 -5.367188 C 72.652344 -6.296875 72.859375 -7.222656 72.859375 -8.152344 C 72.859375 -9.183594 72.652344 -10.21875 72.242188 -11.042969 Z M 40.25 -44.6875 C 40.457031 -44.066406 40.660156 -43.550781 40.867188 -43.035156 C 41.074219 -42.414062 41.382812 -41.898438 41.589844 -41.28125 C 41.796875 -40.558594 42.105469 -39.9375 42.414062 -39.320312 C 42.621094 -38.699219 42.828125 -38.082031 43.035156 -37.566406 C 43.136719 -37.253906 43.242188 -37.050781 43.242188 -37.050781 L 37.050781 -37.050781 C 37.152344 -37.152344 37.253906 -37.253906 37.253906 -37.460938 C 37.667969 -38.699219 38.183594 -39.835938 38.699219 -41.074219 C 39.113281 -42.3125 39.628906 -43.449219 40.25 -44.6875 Z M 40.25 -44.6875 "/></g></g></g></svg>